<svg preserveAspectRatio="none" width="100%" height="100%" overflow="visible" style="display: block;" viewBox="0 0 99.1112 14.6675" fill="none" xmlns="http://www.w3.org/2000/svg">
<g id="the outliers">
<path id="Vector" d="M92.5781 0.111729C93.2545 0.111738 93.811 0.159398 94.2451 0.255283H94.246C94.676 0.33491 95.1522 0.462272 95.6738 0.636143H95.6757C96.1602 0.808046 96.5142 0.889072 96.7451 0.889072C96.8432 0.88904 96.8961 0.869032 96.9228 0.848057C96.9444 0.831104 96.9628 0.802489 96.9628 0.741611C96.9628 0.646642 96.9417 0.52437 96.8964 0.373447L96.8535 0.229893H97.2353L97.2548 0.31876L98.1259 4.41446L98.1543 4.55021H97.7832L97.7646 4.46036C97.5183 3.2444 96.9429 2.27905 96.039 1.55899C95.1368 0.840468 93.986 0.476998 92.5781 0.476963C91.6939 0.476963 90.906 0.600986 90.2138 0.84708L90.2128 0.848057C89.5336 1.0796 89.0088 1.38607 88.6318 1.7631L88.6308 1.76212C88.2711 2.13738 88.0997 2.5345 88.0996 2.9545C88.0996 3.58339 88.3223 4.09494 88.7685 4.49649C89.2264 4.90849 89.7929 5.23895 90.4707 5.48575H90.4716C91.1581 5.71978 92.0888 5.98573 93.2646 6.2836C94.5059 6.59787 95.4986 6.88906 96.2412 7.15763L96.5224 7.26505C97.1672 7.52718 97.7232 7.87582 98.1875 8.31192C98.7291 8.82096 98.999 9.47137 98.999 10.2533C98.9989 11.5235 98.5073 12.5368 97.5283 13.2836L97.3261 13.4291C96.2324 14.185 94.6604 14.5551 92.625 14.5551C92.0693 14.5551 91.5367 14.508 91.0273 14.4125C90.5212 14.3176 89.9687 14.1824 89.3701 14.0092V14.0102C88.5223 13.7747 87.9309 13.6606 87.5869 13.6606C87.4089 13.6606 87.3124 13.6987 87.2656 13.7455C87.2333 13.7778 87.205 13.8446 87.205 13.9731C87.2051 14.0251 87.2184 14.1413 87.25 14.3305L87.2714 14.4613H86.9082L86.8886 14.3725L85.9238 9.82853L85.8945 9.69376H86.2666L86.2841 9.78458C86.4365 10.577 86.8254 11.3116 87.456 11.9887L87.705 12.2367C88.3012 12.8008 88.9987 13.2586 89.7978 13.6108H89.7968C90.7257 13.9976 91.6527 14.1899 92.5781 14.1899C93.5719 14.1898 94.4117 14.0422 95.1005 13.7514C95.7936 13.443 96.3099 13.0615 96.6562 12.6098C97.0041 12.1404 97.1747 11.6536 97.1748 11.1479C97.1748 10.5663 96.9673 10.0942 96.5527 9.72403L96.5507 9.72306C96.1237 9.32649 95.5953 9.01169 94.9638 8.78067L94.9619 8.7797C94.3231 8.53044 93.4323 8.24167 92.288 7.91251V7.91153C91.0313 7.56589 90.0149 7.24377 89.2412 6.94376C88.4592 6.64053 87.7945 6.21669 87.249 5.6713C86.6921 5.11442 86.416 4.40156 86.416 3.54337C86.416 2.92662 86.6839 2.35847 87.2021 1.84024C87.669 1.37336 88.2868 0.996661 89.0517 0.707432L89.3886 0.588291C90.328 0.270075 91.3917 0.111729 92.5781 0.111729Z" fill="var(--fill-0, white)" stroke="var(--stroke-0, white)" stroke-width="0.224033"/>
<path id="Vector_2" d="M71.9546 7.31604H77.1626C78.4301 7.31604 79.3708 7.05642 80.0025 6.55433L80.1245 6.44983C80.7728 5.86167 81.1001 5.07717 81.1001 4.0846C81.1001 2.91191 80.7763 2.07884 80.1519 1.55823L80.1509 1.55725C79.5389 1.03478 78.4741 0.759403 76.9273 0.759403H71.9546V7.31604ZM73.814 14.3668H68.2261L68.2476 14.2369L68.271 14.0953L68.2867 14.0045L68.3785 14.0016C68.9406 13.9864 69.3671 13.8354 69.6714 13.5602C69.9736 13.2868 70.1294 12.9106 70.1294 12.4186V2.29554C70.1294 1.76989 69.9725 1.38919 69.6743 1.13343C69.3669 0.869874 68.9929 0.735993 68.5464 0.735966H68.2456V0.370731H77.1626C79.1471 0.370731 80.6536 0.651836 81.6675 1.22718C82.6907 1.80779 83.2075 2.68626 83.2076 3.84925C83.2076 4.98323 82.7513 5.88855 81.8433 6.55335C81.06 7.12302 79.9584 7.47867 78.5493 7.6305C78.9264 7.77108 79.2645 7.95573 79.562 8.18714C79.9934 8.52266 80.3548 8.89862 80.6441 9.31604L80.8638 9.63636C81.0895 9.97784 81.3317 10.3851 81.5913 10.8571C81.9512 11.4986 82.2631 11.9966 82.5259 12.3522C82.7836 12.7008 83.1021 12.9972 83.482 13.2408C83.8532 13.4636 84.3115 13.5777 84.8609 13.5778C84.9797 13.5778 85.1784 13.5632 85.4605 13.5319L85.566 13.5201L85.5835 13.6246L85.607 13.7662L85.6197 13.8414L85.5542 13.8805C85.3037 14.0308 84.9522 14.1514 84.5074 14.2467L84.5044 14.2477C84.0748 14.3272 83.66 14.3668 83.2603 14.3668C82.6869 14.3668 82.1543 14.1943 81.6656 13.8522L81.6646 13.8512C81.1997 13.5146 80.7909 13.1064 80.439 12.6266L80.438 12.6246C80.0903 12.1347 79.6879 11.5044 79.232 10.734C78.6213 9.70064 78.0926 8.93886 77.6451 8.44495L77.6431 8.44397C77.205 7.94542 76.7166 7.70484 76.1743 7.70472H71.9546V12.4186C71.9546 12.9263 72.1096 13.3091 72.4097 13.5817L72.5298 13.6735C72.8232 13.876 73.2116 13.9882 73.7046 14.0016L73.814 14.0045V14.3668Z" fill="var(--fill-0, white)" stroke="var(--stroke-0, white)" stroke-width="0.224033"/>
<path id="Vector_3" d="M66.4569 0.370731L66.4715 0.466434L67.0135 3.99768L67.0272 4.09046L66.9383 4.12073L66.7967 4.16761L66.6727 4.2096L66.6512 4.07972L66.6034 3.79749C66.4516 2.88708 65.9834 2.15949 65.1913 1.61097L65.1893 1.60999C64.3988 1.04763 63.3026 0.759464 61.8885 0.759403H56.7977V6.86878H61.7C62.8406 6.86874 63.5861 6.66359 63.9764 6.28772C64.3844 5.89414 64.6014 5.24727 64.6014 4.31995V4.13733H64.9666V9.98792H64.6014V9.8053C64.6013 8.91089 64.385 8.2795 63.9764 7.88538L63.9735 7.88245C63.5831 7.47765 62.8392 7.25749 61.7 7.25745H56.7977V12.4186C56.7977 12.7663 56.9115 13.0506 57.1385 13.2789L57.2332 13.3571C57.4748 13.535 57.8671 13.6827 58.4256 13.7916H58.4247C59.0735 13.9152 59.9914 13.9781 61.1815 13.9782C62.7846 13.9782 64.1313 13.6829 65.2254 13.0973C66.3172 12.513 67.0424 11.6862 67.409 10.6168L67.4344 10.5416H67.8055L67.7635 10.6852L66.704 14.2867L66.6805 14.3668H53.0887V14.0016H53.201C53.7626 14.0016 54.1877 13.858 54.4911 13.5836L54.493 13.5817C54.8094 13.3084 54.9725 12.9258 54.9725 12.4186V2.29554C54.9725 1.80537 54.8101 1.42975 54.493 1.15589L54.4911 1.15491C54.1877 0.880478 53.7627 0.735966 53.201 0.735966H53.0887V0.370731H66.4569Z" fill="var(--fill-0, white)" stroke="var(--stroke-0, white)" stroke-width="0.224033"/>
<path id="Vector_4" d="M52.0519 14.367H46.4836V14.0018H46.5959C47.1573 14.0018 47.5826 13.8581 47.8859 13.5838L47.8878 13.5819C48.2042 13.3086 48.3673 12.9259 48.3673 12.4188V2.36603C48.3673 1.87587 48.205 1.50025 47.8878 1.22638L47.8859 1.22541C47.5826 0.950971 47.1575 0.806461 46.5959 0.806461H46.4836V0.441227H52.0519V0.806461H51.9396C51.3781 0.806515 50.9528 0.951018 50.6496 1.22541C50.3476 1.49874 50.1926 1.87422 50.1925 2.36603V12.4188C50.1925 12.9276 50.3481 13.3111 50.6496 13.5838C50.9528 13.8581 51.3782 14.0017 51.9396 14.0018H52.0519V14.367Z" fill="var(--fill-0, white)" stroke="var(--stroke-0, white)" stroke-width="0.224033"/>
<path id="Vector_5" d="M37.4925 0.370731V0.735966H37.3802C36.8187 0.736019 36.3934 0.880521 36.0902 1.15491C35.7882 1.42825 35.6332 1.80372 35.6331 2.29554V12.4186C35.6331 12.6834 35.6936 12.9102 35.8109 13.1022C35.9283 13.2942 36.1062 13.4579 36.3509 13.5914H36.3499C36.6007 13.7163 36.9668 13.8137 37.4544 13.8795C37.9422 13.9453 38.5451 13.9782 39.264 13.9782C41.2969 13.9781 42.8211 13.7042 43.849 13.1676L44.0404 13.0602C44.9776 12.5087 45.6251 11.6965 45.9847 10.6178L46.0101 10.5416H46.3822L46.3402 10.6852L45.2806 14.2867L45.2572 14.3668H31.9242V14.0016H32.0365C32.598 14.0016 33.0232 13.858 33.3265 13.5836L33.3284 13.5817C33.6448 13.3084 33.8079 12.9258 33.8079 12.4186V2.29554C33.8079 1.80537 33.6456 1.42975 33.3284 1.15589L33.3265 1.15491C33.0232 0.880475 32.5981 0.735966 32.0365 0.735966H31.9242V0.370731H37.4925Z" fill="var(--fill-0, white)" stroke="var(--stroke-0, white)" stroke-width="0.224033"/>
<path id="Vector_6" d="M26.8801 14.367H21.2883V14.0018H21.4006C21.9621 14.0018 22.3873 13.8581 22.6906 13.5838L22.6926 13.5819C23.009 13.3086 23.1721 12.9259 23.1721 12.4188V0.806461H21.1184C20.0896 0.806461 19.2123 1.09837 18.4807 1.67756L18.4787 1.67853C17.7503 2.24024 17.2594 3.0631 17.0129 4.15705L16.9846 4.28498L16.8625 4.23615L16.7443 4.18927L16.6613 4.15607L16.676 4.0672L17.2404 0.535953L17.2561 0.441227H30.8899L30.9045 0.53693L31.4465 4.06818L31.4592 4.15607L31.3772 4.18927L31.259 4.23615L31.1369 4.28498L31.1086 4.15607C30.8619 3.04594 30.3711 2.21552 29.6428 1.65412C28.9106 1.08974 28.0482 0.806513 27.051 0.806461H24.9973V12.4188C24.9973 12.9266 25.1521 13.3092 25.4524 13.5819L25.5774 13.6795C25.8824 13.8921 26.2767 14.0017 26.7678 14.0018H26.8801V14.367Z" fill="var(--fill-0, white)" stroke="var(--stroke-0, white)" stroke-width="0.224033"/>
<path id="Vector_7" d="M5.53849 0.48801V0.853245H5.42716C4.88032 0.853245 4.47023 0.990259 4.18302 1.24875C3.89662 1.50667 3.74942 1.85912 3.74942 2.31907V7.94504C3.74942 10.1177 4.141 11.6809 4.90274 12.656C5.66243 13.6283 6.76511 14.1188 8.22794 14.1189C9.82448 14.1189 11.1411 13.7088 12.185 12.8952C13.2132 12.0783 13.7426 10.6447 13.7426 8.55735V2.3425C13.7426 1.86732 13.5882 1.50848 13.2875 1.25071L13.2856 1.24875C12.9984 0.990292 12.5891 0.85328 12.0424 0.853245H11.9301V0.48801H15.9682V0.853245H15.8559C15.3095 0.853268 14.8911 0.990323 14.5873 1.25071C14.3028 1.50782 14.1557 1.86658 14.1557 2.3425V8.55735C14.1557 10.6455 13.6257 12.1826 12.5404 13.1384H12.5395C11.4763 14.0725 9.96266 14.532 8.01603 14.532C6.22036 14.5319 4.74824 14.022 3.60978 12.9958L3.6088 12.9948C2.48076 11.9474 1.92528 10.4148 1.92521 8.41672V2.43625C1.92514 1.92589 1.77524 1.54249 1.48868 1.27024C1.20189 0.99778 0.786048 0.853245 0.224033 0.853245H0.111729V0.48801H5.53849Z" fill="var(--fill-0, white)" stroke="var(--stroke-0, white)" stroke-width="0.224033"/>
</g>
</svg>
