<svg preserveAspectRatio="none" width="100%" height="100%" overflow="visible" style="display: block;" viewBox="0 0 23.9541 24" fill="none" xmlns="http://www.w3.org/2000/svg">
<g id="WhatsApp 1" clip-path="url(#clip0_2083_1381)">
<g id="Vector" filter="url(#filter0_f_2083_1381)">
<path d="M7.45515 18.9277L7.7607 19.1087C9.04401 19.8704 10.5154 20.2732 12.016 20.2739H12.0191C16.6273 20.2739 20.3775 16.5245 20.3795 11.9161C20.3803 9.68287 19.5115 7.58285 17.933 6.00314C17.1588 5.22408 16.2378 4.60631 15.2232 4.1856C14.2087 3.76489 13.1207 3.5496 12.0224 3.55218C7.41072 3.55218 3.66031 7.30122 3.65867 11.9094C3.65639 13.4829 4.09951 15.025 4.93678 16.3573L5.1357 16.6734L4.29096 19.7573L7.45515 18.9277ZM1.87581 22.1465L3.30294 16.9358C2.42279 15.411 1.95975 13.681 1.9603 11.9087C1.96262 6.3642 6.47465 1.85354 12.0193 1.85354C14.7099 1.8549 17.2354 2.90198 19.1347 4.80268C21.034 6.70338 22.0791 9.22981 22.0781 11.9167C22.0756 17.4608 17.5629 21.9723 12.0191 21.9723H12.0148C10.3314 21.9716 8.67735 21.5493 7.20811 20.7482L1.87581 22.1465Z" fill="var(--fill-0, #B3B3B3)"/>
</g>
<path id="Vector_2" d="M1.77259 22.0431L3.19972 16.8325C2.31806 15.3039 1.85495 13.5699 1.85708 11.8053C1.8594 6.26085 6.37143 1.75018 11.916 1.75018C14.6067 1.75155 17.1321 2.79862 19.0315 4.69933C20.9308 6.60003 21.9758 9.12646 21.9749 11.8134C21.9724 17.3575 17.4597 21.8689 11.9159 21.8689H11.9115C10.2282 21.8683 8.57413 21.446 7.10489 20.6448L1.77259 22.0431Z" fill="var(--fill-0, white)"/>
<g id="Vector_3">
</g>
<path id="Vector_4" d="M11.9191 3.44883C7.30736 3.44883 3.55695 7.19787 3.55531 11.806C3.55304 13.3796 3.99615 14.9216 4.83343 16.2539L5.03234 16.5701L4.1876 19.6541L7.35193 18.8244L7.65748 19.0054C8.94079 19.767 10.4122 20.1698 11.9128 20.1706H11.9159C16.524 20.1706 20.2745 16.4211 20.2762 11.8127C20.2797 10.7143 20.0653 9.62613 19.6453 8.61117C19.2254 7.59621 18.6083 6.67463 17.8298 5.89979C17.0556 5.12071 16.1345 4.50293 15.1199 4.08222C14.1054 3.66151 13.0174 3.44623 11.9191 3.44883Z" fill="url(#paint0_linear_2083_1381)"/>
<path id="Vector_5" fill-rule="evenodd" clip-rule="evenodd" d="M9.40192 7.60158C9.21353 7.1831 9.0153 7.17463 8.83634 7.16738L8.35457 7.1615C8.18696 7.1615 7.91463 7.22439 7.68441 7.47594C7.45419 7.72749 6.80467 8.33545 6.80467 9.572C6.80467 10.8086 7.70533 12.0034 7.83083 12.1713C7.95633 12.3392 9.56953 14.9576 12.1243 15.965C14.2473 16.8023 14.6793 16.6358 15.1403 16.5939C15.6012 16.5521 16.6273 15.986 16.8366 15.3991C17.0459 14.8122 17.046 14.3093 16.9833 14.2042C16.9205 14.0991 16.7529 14.0366 16.5014 13.9108C16.2498 13.785 15.0143 13.1771 14.784 13.0931C14.5536 13.0092 14.3862 12.9675 14.2184 13.2191C14.0507 13.4706 13.5696 14.0365 13.4229 14.2042C13.2762 14.3719 13.1298 14.393 12.8782 14.2674C12.6267 14.1417 11.8173 13.8762 10.8571 13.02C10.1099 12.3538 9.60562 11.5311 9.45879 11.2797C9.31196 11.0283 9.44321 10.8921 9.56925 10.7669C9.68204 10.6542 9.82053 10.4733 9.94644 10.3267C10.0724 10.18 10.1138 10.0751 10.1974 9.90763C10.2811 9.74016 10.2394 9.59306 10.1765 9.46742C10.1136 9.34178 9.62531 8.09866 9.40192 7.60158Z" fill="var(--fill-0, white)"/>
</g>
<defs>
<filter id="filter0_f_2083_1381" x="0.910352" y="0.888079" width="22.1332" height="22.2238" filterUnits="userSpaceOnUse" color-interpolation-filters="sRGB">
<feFlood flood-opacity="0" result="BackgroundImageFix"/>
<feBlend mode="normal" in="SourceGraphic" in2="BackgroundImageFix" result="shape"/>
<feGaussianBlur stdDeviation="0.482729" result="effect1_foregroundBlur_2083_1381"/>
</filter>
<linearGradient id="paint0_linear_2083_1381" x1="11.7456" y1="4.45229" x2="11.8303" y2="18.7421" gradientUnits="userSpaceOnUse">
<stop stop-color="#57D163"/>
<stop offset="1" stop-color="#23B33A"/>
</linearGradient>
<clipPath id="clip0_2083_1381">
<rect width="23.9541" height="24" fill="white"/>
</clipPath>
</defs>
</svg>
