<svg preserveAspectRatio="none" width="100%" height="100%" overflow="visible" style="display: block;" viewBox="0 0 16 16" fill="none" xmlns="http://www.w3.org/2000/svg">
<g id="majesticons:image-line">
<path id="Vector" d="M14 8V3.33333C14 2.97971 13.8595 2.64057 13.6095 2.39052C13.3594 2.14048 13.0203 2 12.6667 2H3.33333C2.97971 2 2.64057 2.14048 2.39052 2.39052C2.14048 2.64057 2 2.97971 2 3.33333V10.6667M14 8V12.6667C14 13.0203 13.8595 13.3594 13.6095 13.6095C13.3594 13.8595 13.0203 14 12.6667 14H10.6667M14 8C9.70533 8 7.26333 9.32333 5.96333 10.8287M2 10.6667V12.6667C2 13.0203 2.14048 13.3594 2.39052 13.6095C2.64057 13.8595 2.97971 14 3.33333 14H10.6667M10.6667 14C9.53067 12.1547 7.71533 11.2347 5.96333 10.8287C4.42467 10.4713 2.93533 10.5107 2 10.6667M5.66667 4.66667C5.33333 4.66667 4.66667 4.86667 4.66667 5.66667C4.66667 6.46667 5.33333 6.66667 5.66667 6.66667C6 6.66667 6.66667 6.46667 6.66667 5.66667C6.66667 4.86667 6 4.66667 5.66667 4.66667Z" stroke="var(--stroke-0, white)" stroke-width="1.33333" stroke-linecap="round" stroke-linejoin="round"/>
</g>
</svg>
