<svg preserveAspectRatio="none" width="100%" height="100%" overflow="visible" style="display: block;" viewBox="0 0 22.0265 3.69599" fill="none" xmlns="http://www.w3.org/2000/svg">
<g id="Group 4">
<path id="Vector" fill-rule="evenodd" clip-rule="evenodd" d="M6.8546 2.10922H8.12854C8.05159 1.70162 7.80379 1.44509 7.49147 1.44509C7.18284 1.44509 6.9426 1.71811 6.8546 2.10922ZM21.0943 2.30133L21.9465 3.41983C22.069 3.58128 22.0576 3.64076 21.8652 3.64076H21.546C21.4732 3.64076 21.419 3.60224 21.3753 3.54402L20.8006 2.73474L20.22 3.54257C20.1753 3.60476 20.1157 3.64076 20.0391 3.64076H19.7385C19.588 3.64076 19.5198 3.57565 19.6045 3.46349L20.4937 2.28746L19.624 1.20466C19.5344 1.09298 19.5993 1.0273 19.7303 1.024H20.0507C20.1234 1.024 20.2006 1.06252 20.2443 1.12073L20.8106 1.89674L21.3781 1.12733C21.4237 1.0662 21.4916 1.024 21.5685 1.024H21.8783C21.9984 1.024 22.033 1.1023 21.9475 1.21145L21.0943 2.30133ZM18.6313 3.31311C18.459 3.52287 18.2333 3.68937 17.7804 3.68937C17.147 3.68937 16.7772 3.27478 16.7772 2.62239V1.17264C16.7772 1.03399 16.8781 1.02051 17.0168 1.02051L17.1657 1.024C17.3045 1.024 17.3701 1.03758 17.3701 1.17613V2.57824C17.3701 3.03862 17.6343 3.22239 17.9591 3.22239C18.1212 3.22239 18.3633 3.13972 18.4763 3.02465C18.5985 2.90017 18.6313 2.70427 18.6313 2.5304V1.19224C18.6313 1.05359 18.7176 1.024 18.8563 1.024H18.966C19.1046 1.024 19.2055 1.03758 19.2055 1.17613V3.48396C19.2055 3.58759 19.1939 3.64076 19.0553 3.64076H18.7897C18.7056 3.64076 18.6313 3.59613 18.6313 3.48794V3.31311ZM11.3751 1.04699V0.444954C11.3751 0.355109 11.4589 0.328233 11.5652 0.328233H11.7489C11.8876 0.328233 11.9379 0.367916 11.9379 0.478719V1.024H12.5674C12.6459 1.024 12.7242 1.04214 12.7242 1.18069V1.34738C12.7242 1.48593 12.6785 1.52678 12.5399 1.52678H11.9891C11.9663 1.52678 11.9379 1.54987 11.9379 1.57277V2.7588C11.9379 2.99962 12.0166 3.18057 12.2129 3.18057H12.3215C12.399 3.18057 12.4556 3.14952 12.4987 3.14816C12.6061 3.14486 12.6675 3.1894 12.6675 3.30884V3.45777C12.6675 3.61446 12.55 3.6752 12.3224 3.6752H12.1231C11.6006 3.6752 11.3751 3.38665 11.3751 2.85301V1.52678H11.0981C10.9594 1.52678 10.8929 1.50631 10.8929 1.36776V1.19195C10.8929 1.0858 10.9335 1.04699 11.0337 1.04699H11.3751ZM9.63009 1.42801C9.72595 1.25802 9.96347 0.998384 10.4605 1.00294C10.5934 1.00294 10.6689 1.0533 10.6689 1.18322V1.36601C10.6689 1.50253 10.6373 1.53357 10.5029 1.54619H10.3373C9.89895 1.54619 9.63009 1.8262 9.63009 2.3284V3.52083C9.63009 3.60903 9.58963 3.64542 9.47388 3.64076H9.19852C9.11043 3.64076 9.06948 3.6068 9.06948 3.52083V1.20378C9.06948 1.09638 9.10587 1.02866 9.24461 1.02866H9.45962C9.59264 1.02866 9.63009 1.09289 9.63009 1.20815V1.42801ZM6.83277 2.5436C6.92727 2.99923 7.19729 3.23122 7.65913 3.22442C7.97495 3.22112 8.22993 3.10411 8.3418 3.06181C8.45337 3.0196 8.54205 3.04289 8.53866 3.13342C8.53866 3.17484 8.54458 3.30447 8.54186 3.34454C8.53565 3.43846 8.48209 3.47213 8.4264 3.50463C8.25418 3.60534 7.98087 3.68995 7.63779 3.69577C7.30548 3.7014 6.83364 3.5968 6.59554 3.34328C6.34774 3.07937 6.25499 2.72387 6.25499 2.35072C6.25499 1.57171 6.7632 1.01672 7.48584 1.01672C7.78196 1.01672 8.0839 1.08163 8.3124 1.28791C8.58358 1.53309 8.6906 1.88626 8.6906 2.26446C8.69613 2.49227 8.6125 2.54865 8.46376 2.54816L6.83277 2.5436ZM3.64493 1.20544C3.58205 1.05854 3.74816 1.02439 3.81462 1.02439L4.04205 1.024C4.14218 1.0239 4.2198 1.0923 4.2557 1.18574L4.98523 3.02223L5.6449 1.18535C5.67769 1.09386 5.72019 1.024 5.82342 1.024H6.07181C6.2807 1.024 6.25615 1.16119 6.19464 1.3142L5.3088 3.51889C5.27252 3.60922 5.21954 3.64076 5.12203 3.64076H4.8231C4.70793 3.64076 4.66097 3.58118 4.62274 3.49192L3.64493 1.20544ZM1.65 1.38154C1.88723 1.09987 2.10185 1.01022 2.4915 1.01022C3.13535 1.01022 3.49706 1.35184 3.49706 2.0381L3.49289 3.5023C3.4926 3.60923 3.46543 3.64076 3.32698 3.64076H3.07462C2.93616 3.64076 2.90375 3.6133 2.90405 3.5023L2.90841 2.03936C2.90841 1.71559 2.69758 1.4644 2.33645 1.46537C1.84036 1.46672 1.65 1.86714 1.65 2.21876V3.51404C1.65 3.60922 1.62662 3.64076 1.48807 3.64076H1.24958C1.11103 3.64076 1.0859 3.60515 1.0859 3.49716V1.19806C1.0859 1.086 1.12306 1.024 1.23697 1.024H1.52212C1.60411 1.024 1.65 1.07106 1.65 1.13858V1.38154ZM0.447769 3.64076H0.223351C0.0879046 3.64076 0 3.61689 0 3.47009V0.159217C0 0.0332786 0.0521021 -1.11146e-08 0.167173 -1.11146e-08H0.435544C0.567886 -1.11146e-08 0.606113 0.0438534 0.606113 0.143692V3.49765C0.606113 3.6197 0.561482 3.64076 0.447769 3.64076ZM13.4135 2.39535C13.4135 2.60822 13.4754 2.8207 13.6227 2.97856C13.757 3.12265 13.9398 3.19551 14.1361 3.19551C14.3317 3.19551 14.5138 3.12168 14.6479 2.97837C14.7957 2.8207 14.8587 2.60861 14.8587 2.39535C14.8587 2.18335 14.7969 1.97145 14.6509 1.81368C14.5997 1.75828 14.5414 1.71336 14.4778 1.67901V1.22678C14.4778 1.18118 14.5268 1.16206 14.5507 1.16973C15.0655 1.33564 15.4141 1.80893 15.4141 2.39535C15.4141 3.13089 14.8716 3.68491 14.1361 3.68491C13.4024 3.68491 12.858 3.12827 12.858 2.39535C12.858 1.81427 13.2038 1.34185 13.7134 1.17283C13.7379 1.16468 13.7882 1.16216 13.7882 1.21494V1.68348C13.7276 1.71734 13.6719 1.7609 13.6228 1.81378C13.4762 1.97145 13.4135 2.18296 13.4135 2.39535ZM15.6652 0.116818C15.6652 0.0269733 15.7491 -1.11146e-08 15.8552 -1.11146e-08H16.0391C16.1776 -1.11146e-08 16.228 0.0396834 16.228 0.15068C16.228 1.28015 16.2443 1.001 16.228 2.7588C16.2248 3.10547 16.317 3.14535 16.4966 3.1501C16.5397 3.15127 16.5904 3.19512 16.5904 3.26081V3.5318C16.5904 3.66763 16.4669 3.65667 16.3673 3.65686C15.8451 3.65754 15.666 3.36579 15.6652 2.85301C15.6628 1.38609 15.6652 1.13723 15.6652 0.116818Z" fill="var(--fill-0, white)"/>
<path id="Vector_2" fill-rule="evenodd" clip-rule="evenodd" d="M14.132 0.80472C14.2366 0.80472 14.3221 0.890297 14.3221 0.994792V1.74217C14.3221 1.84667 14.2366 1.93205 14.132 1.93205C14.0275 1.93205 13.9421 1.84667 13.9421 1.74217V0.994792C13.9421 0.890297 14.0275 0.80472 14.132 0.80472Z" fill="var(--fill-0, #CE232A)"/>
</g>
</svg>
