<svg preserveAspectRatio="none" width="100%" height="100%" overflow="visible" style="display: block;" viewBox="0 0 16 16" fill="none" xmlns="http://www.w3.org/2000/svg">
<g id="ph:monitor-bold">
<path id="Vector" d="M13 2.25H3C2.53587 2.25 2.09075 2.43437 1.76256 2.76256C1.43437 3.09075 1.25 3.53587 1.25 4V11C1.25 11.4641 1.43437 11.9092 1.76256 12.2374C2.09075 12.5656 2.53587 12.75 3 12.75H13C13.2298 12.75 13.4574 12.7047 13.6697 12.6168C13.882 12.5288 14.0749 12.3999 14.2374 12.2374C14.3999 12.0749 14.5288 11.882 14.6168 11.6697C14.7047 11.4574 14.75 11.2298 14.75 11V4C14.75 3.77019 14.7047 3.54262 14.6168 3.3303C14.5288 3.11798 14.3999 2.92507 14.2374 2.76256C14.0749 2.60006 13.882 2.47116 13.6697 2.38321C13.4574 2.29527 13.2298 2.25 13 2.25ZM13.25 11C13.25 11.0663 13.2237 11.1299 13.1768 11.1768C13.1299 11.2237 13.0663 11.25 13 11.25H3C2.9337 11.25 2.87011 11.2237 2.82322 11.1768C2.77634 11.1299 2.75 11.0663 2.75 11V4C2.75 3.9337 2.77634 3.87011 2.82322 3.82322C2.87011 3.77634 2.9337 3.75 3 3.75H13C13.0663 3.75 13.1299 3.77634 13.1768 3.82322C13.2237 3.87011 13.25 3.9337 13.25 4V11ZM10.75 14.25C10.75 14.4489 10.671 14.6397 10.5303 14.7803C10.3897 14.921 10.1989 15 10 15H6C5.80109 15 5.61032 14.921 5.46967 14.7803C5.32902 14.6397 5.25 14.4489 5.25 14.25C5.25 14.0511 5.32902 13.8603 5.46967 13.7197C5.61032 13.579 5.80109 13.5 6 13.5H10C10.1989 13.5 10.3897 13.579 10.5303 13.7197C10.671 13.8603 10.75 14.0511 10.75 14.25Z" fill="var(--fill-0, white)"/>
</g>
</svg>
