<svg preserveAspectRatio="none" width="100%" height="100%" overflow="visible" style="display: block;" viewBox="0 0 20 20" fill="none" xmlns="http://www.w3.org/2000/svg">
<g id="material-symbols:check-rounded">
<path id="Vector" d="M7.95838 12.625L15.0209 5.5625C15.1875 5.39583 15.382 5.3125 15.6042 5.3125C15.8264 5.3125 16.0209 5.39583 16.1875 5.5625C16.3542 5.72917 16.4375 5.92722 16.4375 6.15667C16.4375 6.38611 16.3542 6.58389 16.1875 6.75L8.54172 14.4167C8.37505 14.5833 8.1806 14.6667 7.95838 14.6667C7.73616 14.6667 7.54172 14.5833 7.37505 14.4167L3.79172 10.8333C3.62505 10.6667 3.54505 10.4689 3.55172 10.24C3.55838 10.0111 3.64533 9.81306 3.81255 9.64583C3.97977 9.47861 4.17783 9.39528 4.40672 9.39583C4.6356 9.39639 4.83338 9.47972 5.00005 9.64583L7.95838 12.625Z" fill="var(--fill-0, #64E54F)"/>
</g>
</svg>
