<svg preserveAspectRatio="none" width="100%" height="100%" overflow="visible" style="display: block;" viewBox="0 0 28.8124 44.7118" fill="none" xmlns="http://www.w3.org/2000/svg">
<g id="Group 14">
<path id="Vector" fill-rule="evenodd" clip-rule="evenodd" d="M17.0288 31.2741C16.7544 31.1898 16.4738 31.1477 16.1994 31.1457C15.0076 31.1337 13.8934 31.8535 13.5143 32.9863C13.0472 34.3798 13.8641 35.8855 15.3323 36.3367C15.6067 36.4209 15.8873 36.463 16.1617 36.465C17.3534 36.477 18.4677 35.7572 18.8468 34.6244C19.3138 33.2309 18.497 31.7252 17.0309 31.2741H17.0288Z" fill="var(--fill-0, #A0763A)"/>
<g id="Group 13">
<path id="Vector_2" fill-rule="evenodd" clip-rule="evenodd" d="M13.6045 38.9754C14.0318 38.9834 14.4486 38.8932 14.8193 38.7167C14.5742 38.1052 14.5261 37.4175 14.7523 36.7498C14.7585 36.7338 14.7648 36.7077 14.7711 36.6917C13.6631 36.1965 12.9364 35.1639 12.8421 34.0431C12.0462 34.2717 11.3781 34.8651 11.1058 35.6732C11.0723 35.7754 11.0451 35.8777 11.0262 35.9799C10.9592 36.3168 10.9676 36.6536 11.0409 36.9724C11.2357 37.8265 11.8912 38.5604 12.8296 38.8491C13.0872 38.9273 13.3469 38.9694 13.6045 38.9734V38.9754Z" fill="var(--fill-0, #A0763A)"/>
<path id="Vector_3" fill-rule="evenodd" clip-rule="evenodd" d="M20.6376 36.3965C21.8293 36.4105 22.9415 35.6947 23.3226 34.5559C23.7897 33.1624 22.9729 31.6566 21.5068 31.2055C21.2261 31.1193 20.9413 31.0772 20.6627 31.0752C19.9485 31.0692 19.2636 31.3258 18.7484 31.7749C19.4521 32.591 19.7265 33.7138 19.3683 34.7844C19.2468 35.1473 19.0688 35.4742 18.8426 35.7508C19.1107 35.9794 19.4437 36.1539 19.8103 36.2661C20.0846 36.3503 20.3653 36.3924 20.6397 36.3965H20.6376Z" fill="var(--fill-0, #A0763A)"/>
<path id="Vector_4" fill-rule="evenodd" clip-rule="evenodd" d="M28.0898 23.6289C27.0447 24.86 26.2572 25.3612 24.7806 25.9888C24.7848 24.7738 24.7869 23.8454 24.7889 23.6008C24.8204 20.8299 24.3659 18.3277 21.9384 16.2605C20.954 15.4224 20.6461 13.5257 20.5812 12.0881C20.4136 8.29668 20.51 4.49521 20.5205 0.577439C20.5205 0.26065 20.2524 0 19.9194 0H15.7577C15.4268 0 15.1566 0.262655 15.1587 0.579444C15.1671 4.72378 15.255 8.55332 15.1 12.3728C15.0456 13.6981 14.7335 15.4846 13.8098 16.2144C12.3647 17.3573 11.6211 18.6766 11.2483 20.1021C11.2106 18.1272 9.78851 17.1147 7.93282 18.9733C7.98937 17.8625 7.7925 17.1668 7.32753 16.8961C6.17558 16.2144 4.98803 18.1873 3.679 18.1753C2.59826 18.1693 1.80866 16.6094 1.40233 15.8214C0.826361 14.7087 -0.151747 15.1437 0.0199982 16.461C0.252482 18.2234 1.10911 20.07 2.57732 22.0028C-0.342341 22.2515 1.28086 25.9226 5.89912 25.7522C3.80676 26.5642 4.61941 28.6514 7.11808 27.6269C8.78526 26.9392 9.24185 26.7788 10.4566 27.0173C10.643 27.0534 10.8001 27.0454 10.9174 27.0053C10.9195 27.4143 10.9216 27.7612 10.9237 27.9697L10.93 28.4229C10.3477 28.2564 9.79688 28.072 9.28793 27.8755C9.05126 27.7833 8.77479 27.8895 8.68054 28.1161C8.58629 28.3406 8.69939 28.6033 8.94444 28.6975C9.55602 28.9341 10.2283 29.1547 10.9405 29.3472C12.4631 29.7582 14.1617 30.0369 15.8268 30.0389C16.2101 30.0389 16.5934 30.0248 16.9704 29.9928C17.0604 29.9847 17.14 29.9807 17.2112 29.9807C17.5987 29.9807 17.739 30.1191 17.8123 30.6243C17.8375 30.8048 17.8605 30.9933 17.8668 31.1777C17.8815 31.4163 18.1244 31.5246 18.3757 31.5166C18.6606 31.5085 18.958 31.3562 18.9433 31.0795C18.9266 30.8469 18.8994 30.6103 18.8638 30.3737C18.7842 29.8665 18.8177 29.7141 19.3413 29.5477C20.5875 29.1487 21.7101 28.485 22.5982 27.4665C23.3417 27.3762 24.081 27.2058 24.7785 26.9472C24.8581 26.9191 24.9377 26.887 25.0151 26.8549C26.6802 26.1752 27.6416 25.5617 28.8124 24.1843L28.0898 23.6249V23.6289ZM10.7247 26.2454C7.95586 24.8199 5.97452 23.0114 4.78277 20.7998C4.50421 20.2866 4.66339 19.9537 5.13883 20.6555C5.32943 20.9422 5.80487 21.67 6.30963 22.1071C7.3778 23.0354 7.73385 21.4635 8.56325 21.245C9.54764 20.9923 9.62095 23.5447 9.50994 24.4189C10.2179 23.5728 10.687 22.6986 10.9593 21.8805C10.9028 22.5362 10.8923 23.2079 10.8986 23.8875C10.9028 24.3286 10.909 25.3993 10.9153 26.3597C10.863 26.3216 10.8001 26.2835 10.7289 26.2454H10.7247Z" fill="var(--fill-0, white)"/>
<path id="Vector_5" fill-rule="evenodd" clip-rule="evenodd" d="M19.3264 42.7846C18.6311 42.5701 18.097 42.1069 17.7933 41.5315C17.4414 42.1791 16.8089 42.6383 16.0821 42.8067C16.0256 43.5987 16.545 44.3666 17.3786 44.6232C17.565 44.6793 17.7514 44.7094 17.9378 44.7114C18.7379 44.7215 19.4814 44.2403 19.7348 43.4844C19.8019 43.2859 19.8312 43.0854 19.8186 42.8929C19.6532 42.8688 19.4919 42.8368 19.3264 42.7866V42.7846Z" fill="var(--fill-0, #A0763A)"/>
<path id="Vector_6" fill-rule="evenodd" clip-rule="evenodd" d="M20.1014 39.5045C19.605 40.098 18.872 40.4809 18.0761 40.5732C18.1368 41.3371 18.6772 42.0408 19.4919 42.2915C19.693 42.3536 19.8962 42.3837 20.0951 42.3857C20.9622 42.3957 21.7686 41.8724 22.0451 41.0484C22.1121 40.8499 22.1414 40.6494 22.1372 40.4589C21.9047 40.4428 21.6618 40.3947 21.4272 40.3225C20.8973 40.1601 20.447 39.8754 20.1014 39.5065V39.5045Z" fill="var(--fill-0, #A0763A)"/>
<path id="Vector_7" fill-rule="evenodd" clip-rule="evenodd" d="M17.4562 40.964C17.4981 40.8397 17.5211 40.7113 17.5337 40.587C17.2802 40.573 17.0163 40.5289 16.7566 40.4487C16.0194 40.2221 15.435 39.761 15.0643 39.1835C14.6161 39.3941 14.1113 39.5003 13.5982 39.4943C13.5647 39.4943 13.5291 39.4943 13.4956 39.4923C13.4621 39.5645 13.4348 39.6467 13.4097 39.7209C13.0536 40.7835 13.6694 41.9184 14.7899 42.2632C14.9973 42.3274 15.2088 42.3595 15.4183 42.3615C16.321 42.3715 17.1671 41.8281 17.4583 40.964H17.4562Z" fill="var(--fill-0, #A0763A)"/>
<path id="Vector_8" fill-rule="evenodd" clip-rule="evenodd" d="M23.4463 35.5025C22.8347 36.3867 21.7833 36.92 20.6733 36.914C20.822 37.4413 20.8157 38.0027 20.6293 38.5561C20.5706 38.7285 20.5057 38.8989 20.4177 39.0453C20.711 39.3982 21.1152 39.6789 21.5927 39.8253C21.8378 39.8994 22.0849 39.9375 22.3279 39.9415C23.3814 39.9536 24.3595 39.322 24.6946 38.3235C24.6967 38.3175 24.6988 38.3115 24.7009 38.3055C24.8538 37.8403 24.8454 37.3651 24.7093 36.932C24.5187 36.3245 24.0705 35.8012 23.4484 35.5025H23.4463Z" fill="var(--fill-0, #A0763A)"/>
<path id="Vector_9" fill-rule="evenodd" clip-rule="evenodd" d="M18.4721 36.1379C17.8501 36.6833 17.0228 36.996 16.1598 36.988C15.8729 36.986 15.5818 36.9479 15.2948 36.8697C15.2885 36.8858 15.2844 36.9018 15.2802 36.9118C14.855 38.181 15.586 39.5424 16.9222 39.9534C17.1736 40.0296 17.427 40.0677 17.6762 40.0717C18.757 40.0837 19.7623 39.4281 20.1079 38.3955C20.2796 37.8843 20.2608 37.3429 20.0827 36.8697C19.9382 36.8437 19.7874 36.8056 19.6408 36.7615C19.1989 36.6251 18.8009 36.4126 18.47 36.1379H18.4721Z" fill="var(--fill-0, #A0763A)"/>
</g>
</g>
</svg>
