<svg preserveAspectRatio="none" width="100%" height="100%" overflow="visible" style="display: block;" viewBox="0 0 15.3591 14.0966" fill="none" xmlns="http://www.w3.org/2000/svg">
<g id="Group 88">
<path id="o" d="M8.02774 0.120518C8.03003 0.120632 8.03229 0.121378 8.03458 0.121494C9.3973 0.16534 10.6047 0.460236 11.6537 1.017L11.8666 1.13321C12.9146 1.72564 13.728 2.51828 14.3041 3.51114C14.9331 4.55584 15.2475 5.73612 15.2475 7.04825C15.2475 8.27834 14.9717 9.39869 14.4193 10.4067L14.3051 10.6068C13.7287 11.5868 12.9144 12.3725 11.8656 12.9643L11.6537 13.0795C10.6067 13.6352 9.40194 13.9303 8.04239 13.975C8.03913 13.9752 8.03589 13.9758 8.03263 13.976L7.67911 13.9848L7.3256 13.976C7.32266 13.9758 7.31974 13.9752 7.31681 13.975C5.94274 13.9307 4.72353 13.6355 3.66251 13.0795L3.66153 13.0785C2.52462 12.46 1.647 11.6289 1.03263 10.5844L1.03165 10.5834C0.41791 9.5246 0.111729 8.34519 0.111729 7.04825C0.111739 5.73661 0.418306 4.55667 1.03263 3.51212L1.15372 3.31583C1.7731 2.34954 2.61748 1.58307 3.68399 1.017L3.90274 0.906651C4.90932 0.421777 6.04754 0.163366 7.31485 0.121494C7.43442 0.1153 7.55583 0.111736 7.67911 0.111729L8.02774 0.120518ZM7.32364 0.345127C5.64894 0.432582 4.36141 1.13749 3.4545 2.1713C2.50241 3.25814 2.01701 4.87731 2.017 7.04825C2.017 9.21776 2.50106 10.8448 3.45255 11.9467H3.45353C4.36071 12.9673 5.6495 13.6652 7.3256 13.7514C7.44226 13.7551 7.56003 13.7602 7.67911 13.7602C7.79874 13.7602 7.91744 13.7542 8.03458 13.7504C9.70919 13.664 10.9899 12.9675 11.8832 11.9477C12.8498 10.8457 13.3422 9.21874 13.3422 7.04825C13.3422 4.81738 12.8421 3.18545 11.8637 2.12931L11.8627 2.12735C10.9552 1.12012 9.67866 0.429277 8.02774 0.344151C7.91285 0.340451 7.7964 0.336338 7.67911 0.336338C7.55939 0.336343 7.44097 0.341267 7.32364 0.345127Z" fill="var(--fill-0, white)" stroke="var(--stroke-0, white)" stroke-width="0.224033"/>
</g>
</svg>
