<svg preserveAspectRatio="none" width="100%" height="100%" overflow="visible" style="display: block;" viewBox="0 0 1.1273 4.13344" fill="none" xmlns="http://www.w3.org/2000/svg">
<path id="Union" fill-rule="evenodd" clip-rule="evenodd" d="M1.1273 0.56365C1.1273 0.874947 0.874924 1.1273 0.56365 1.1273C0.252377 1.1273 0 0.874947 0 0.56365C0 0.252354 0.252377 0 0.56365 0C0.874924 0 1.1273 0.252354 1.1273 0.56365ZM1.1273 2.06672C1.1273 2.37801 0.874924 2.63037 0.56365 2.63037C0.252377 2.63037 0 2.37801 0 2.06672C0 1.75542 0.252377 1.50307 0.56365 1.50307C0.874924 1.50307 1.1273 1.75542 1.1273 2.06672ZM0.56365 4.13344C0.874924 4.13344 1.1273 3.88108 1.1273 3.56979C1.1273 3.25849 0.874924 3.00613 0.56365 3.00613C0.252377 3.00613 0 3.25849 0 3.56979C0 3.88108 0.252377 4.13344 0.56365 4.13344Z" fill="var(--fill-0, white)" fill-opacity="0.75"/>
</svg>
