<svg preserveAspectRatio="none" width="100%" height="100%" overflow="visible" style="display: block;" viewBox="0 0 14 14" fill="none" xmlns="http://www.w3.org/2000/svg">
<g id="uil:arrow-up">
<path id="Vector" d="M7.41611 10.3318L10.3328 7.41513C10.3859 7.35965 10.4275 7.29423 10.4553 7.22263C10.5136 7.08061 10.5136 6.92132 10.4553 6.7793C10.4275 6.70769 10.3859 6.64227 10.3328 6.5868L7.41611 3.67013C7.36173 3.61574 7.29716 3.5726 7.22609 3.54316C7.15503 3.51373 7.07887 3.49858 7.00195 3.49858C6.8466 3.49858 6.69762 3.56029 6.58778 3.67013C6.47794 3.77997 6.41623 3.92895 6.41623 4.0843C6.41623 4.23964 6.47794 4.38862 6.58778 4.49846L8.51278 6.41763L4.08528 6.41763C3.93057 6.41763 3.7822 6.47909 3.6728 6.58848C3.56341 6.69788 3.50195 6.84625 3.50195 7.00096C3.50195 7.15567 3.56341 7.30404 3.6728 7.41344C3.7822 7.52284 3.93057 7.5843 4.08528 7.5843L8.51278 7.5843L6.58778 9.50346C6.53311 9.55769 6.48971 9.62221 6.46009 9.69329C6.43048 9.76438 6.41523 9.84062 6.41523 9.91763C6.41523 9.99464 6.43048 10.0709 6.46009 10.142C6.48971 10.213 6.53311 10.2776 6.58778 10.3318C6.64201 10.3865 6.70653 10.4299 6.77761 10.4595C6.8487 10.4891 6.92494 10.5043 7.00195 10.5043C7.07895 10.5043 7.1552 10.4891 7.22628 10.4595C7.29737 10.4299 7.36189 10.3865 7.41611 10.3318Z" fill="var(--fill-0, white)"/>
</g>
</svg>
