<svg width="75.5584" height="23.9498" overflow="visible" style="display: block;" viewBox="0 0 75.5584 23.9498" fill="none" xmlns="http://www.w3.org/2000/svg">
<g id="Group 1">
<path id="Vector" d="M58.2565 18.2425C57.7192 16.7861 56.7235 16.3525 55.2483 16.5125C53.9504 16.6532 52.6254 16.5432 51.3124 16.5453C51.2716 16.5453 51.2308 16.56 51.1451 16.5765C51.1451 18.9923 51.1451 21.4168 51.1451 23.89C48.5538 23.89 46.007 23.89 43.4365 23.89C43.4365 16.3147 43.4365 8.73128 43.4365 1.11993C43.6333 1.1037 43.7786 1.08129 43.9238 1.08125C49.2622 1.07999 54.6007 1.07588 59.939 1.08406C61.7617 1.08685 63.5437 1.34784 65.2182 2.10912C67.9326 3.34311 69.33 5.46496 69.3996 8.44467C69.4703 11.4734 68.2519 13.767 65.5045 15.1685C65.2788 15.2836 65.0499 15.3925 64.7685 15.5308C66.5567 18.3159 68.3278 21.0743 70.1393 23.8957C69.9809 23.9138 69.8698 23.9374 69.7586 23.9375C67.2831 23.9395 64.8076 23.9282 62.3323 23.9497C61.9257 23.9532 61.7251 23.7948 61.5263 23.4722C60.4562 21.7352 59.3644 20.0115 58.2565 18.2425ZM58.4147 11.2958C58.6938 11.2814 58.9752 11.2853 59.2516 11.2494C60.7519 11.0549 61.5693 10.121 61.5477 8.64035C61.528 7.28845 60.7131 6.51952 59.158 6.39267C58.9226 6.37347 58.6853 6.37282 58.4489 6.37266C56.1695 6.37113 53.89 6.37073 51.6106 6.37313C51.4487 6.3733 51.2867 6.39808 51.1574 6.40874C51.1574 8.06852 51.1574 9.67117 51.1574 11.2959C53.5623 11.2959 55.9257 11.2959 58.4147 11.2958Z" fill="#ffffff"/>
<path id="Vector_2" d="M23.3374 8.22725C23.8266 8.22725 24.2525 8.22725 24.8534 8.22725C24.7287 11.1482 24.811 14.0238 24.4343 16.838C23.9575 20.4002 21.6252 22.5131 18.1727 23.2843C14.3665 24.1345 10.5139 24.1545 6.70685 23.3102C2.4951 22.3761 0.239056 19.5766 0.0671637 15.2583C-0.000431776 13.5601 0.0099185 11.8584 0.00476798 10.1583C-0.0042237 7.19058 0.00226273 4.22282 0.00226273 1.20654C2.51894 1.20654 5.004 1.20654 7.56302 1.20654C7.56302 1.37038 7.56265 1.55562 7.56307 1.74086C7.57251 5.93873 7.57783 10.1366 7.59796 14.3344C7.60001 14.7615 7.66425 15.1934 7.74553 15.6141C8.1211 17.5583 9.08934 18.5065 11.1003 18.6635C12.222 18.7511 13.3771 18.6764 14.4922 18.5086C15.6432 18.3355 16.4197 17.5502 16.743 16.4376C16.9626 15.6818 17.11 14.8833 17.1386 14.0984C17.2014 12.3783 17.1683 10.6547 17.1741 8.9325C17.1748 8.72212 17.1742 8.51173 17.1742 8.22724C19.2392 8.22724 21.2566 8.22724 23.3374 8.22725Z" fill="#ffffff"/>
<path id="Vector_3" d="M39.8853 6.38551C39.1789 6.38551 38.537 6.38551 37.8396 6.38551C37.8396 12.1691 37.8396 17.9064 37.8396 23.6748C35.2747 23.6748 32.766 23.6748 30.196 23.6748C30.196 17.9166 30.196 12.159 30.196 6.34636C25.839 6.34636 21.5426 6.34636 17.209 6.34636C17.209 4.60353 17.209 2.91581 17.209 1.19531C25.3925 1.19531 33.5619 1.19531 41.7554 1.19531C41.7554 2.92462 41.7554 4.61714 41.7554 6.38551C41.1395 6.38551 40.5446 6.38551 39.8853 6.38551Z" fill="#ffffff"/>
<path id="Vector_4" d="M72.804 0.373812H72.0834V2.33633H71.5965V0.373812H70.8857V0H72.804V0.373812ZM73.7139 0L74.3189 1.68735L74.9214 0H75.5584V2.33633H75.0665V1.68735L75.1206 0.581485L74.4837 2.33633H74.1517L73.5172 0.584081L73.5664 1.68735V2.33633H73.0819V0H73.7139Z" fill="#ffffff"/>
</g>
</svg>
