<svg preserveAspectRatio="none" width="100%" height="100%" overflow="visible" style="display: block;" viewBox="0 0 126.836 16" fill="none" xmlns="http://www.w3.org/2000/svg">
<g id="Group">
<path id="Vector" d="M57.6605 0H47.1922C45.0137 0 43.2313 1.78243 43.2313 3.96096V14.8536C43.2313 15.2497 43.5425 15.5609 43.9386 15.5609H44.7874C45.1835 15.5609 45.4947 15.2497 45.4947 14.8536V3.96096C45.4947 3.0273 46.2586 2.2634 47.1922 2.2634H57.6605C58.5941 2.2634 59.358 3.0273 59.358 3.96096V14.8536C59.358 15.2497 59.6693 15.5609 60.0653 15.5609H60.9141C61.3102 15.5609 61.6214 15.2497 61.6214 14.8536V3.96096C61.6214 1.78243 59.8673 0 57.6605 0Z" fill="var(--fill-0, white)"/>
<path id="Vector_2" d="M126.128 8.77077H125.28C124.884 8.77077 124.572 9.08199 124.572 9.47809V11.6C124.572 12.5337 123.808 13.2976 122.875 13.2976H112.407C111.473 13.2976 110.709 12.5337 110.709 11.6V9.47809C110.709 9.08199 110.398 8.77077 110.002 8.77077H109.153C108.757 8.77077 108.446 9.08199 108.446 9.47809V11.6C108.446 13.7786 110.228 15.561 112.407 15.561H122.875C125.053 15.561 126.836 13.7786 126.836 11.6V9.47809C126.836 9.08199 126.525 8.77077 126.128 8.77077Z" fill="var(--fill-0, white)"/>
<path id="Vector_3" d="M122.875 0H112.407C110.228 0 108.446 1.78243 108.446 3.96096V6.0829C108.446 6.47899 108.757 6.79021 109.153 6.79021H110.002C110.398 6.79021 110.709 6.47899 110.709 6.0829V3.96096C110.709 3.0273 111.473 2.2634 112.407 2.2634H122.875C123.808 2.2634 124.572 3.0273 124.572 3.96096V6.0829C124.572 6.47899 124.884 6.79021 125.28 6.79021H126.128C126.525 6.79021 126.836 6.47899 126.836 6.0829V3.96096C126.836 1.78243 125.082 0 122.875 0Z" fill="var(--fill-0, white)"/>
<path id="Vector_4" d="M103.494 8.77077H102.646C102.25 8.77077 101.938 9.08199 101.938 9.47809V11.6C101.938 12.5337 101.174 13.2976 100.241 13.2976H89.7726C88.8389 13.2976 88.075 12.5337 88.075 11.6V9.47809C88.075 9.08199 87.7638 8.77077 87.3677 8.77077H86.5189C86.1228 8.77077 85.8116 9.08199 85.8116 9.47809V11.6C85.8116 13.7786 87.594 15.561 89.7726 15.561H100.241C102.419 15.561 104.202 13.7786 104.202 11.6V9.47809C104.202 9.08199 103.891 8.77077 103.494 8.77077Z" fill="var(--fill-0, white)"/>
<path id="Vector_5" d="M100.241 0H89.7725C87.594 0 85.8115 1.78243 85.8115 3.96096V6.0829C85.8115 6.47899 86.1228 6.79021 86.5189 6.79021H87.3676C87.7637 6.79021 88.0749 6.47899 88.0749 6.0829V3.96096C88.0749 3.0273 88.8388 2.2634 89.7725 2.2634H100.241C101.174 2.2634 101.938 3.0273 101.938 3.96096V6.0829C101.938 6.47899 102.25 6.79021 102.646 6.79021H103.494C103.89 6.79021 104.202 6.47899 104.202 6.0829V3.96096C104.202 1.78243 102.448 0 100.241 0Z" fill="var(--fill-0, white)"/>
<path id="Vector_6" d="M38.195 8.77077H37.3462C36.9501 8.77077 36.6389 9.08199 36.6389 9.47809V11.6C36.6389 12.5337 35.875 13.2976 34.9414 13.2976H24.4731C23.5395 13.2976 22.7756 12.5337 22.7756 11.6V9.47809C22.7756 9.08199 22.4643 8.77077 22.0683 8.77077H21.2195C20.8234 8.77077 20.5122 9.08199 20.5122 9.47809V11.6C20.5122 13.7786 22.2946 15.561 24.4731 15.561H34.9414C37.1199 15.561 38.9023 13.7786 38.9023 11.6V9.47809C38.9023 9.08199 38.5911 8.77077 38.195 8.77077Z" fill="var(--fill-0, white)"/>
<path id="Vector_7" d="M34.9413 0H24.4731C22.2945 0 20.5121 1.78243 20.5121 3.96096V6.0829C20.5121 6.47899 20.8233 6.79021 21.2194 6.79021H22.0682C22.4643 6.79021 22.7755 6.47899 22.7755 6.0829V3.96096C22.7755 3.0273 23.5394 2.2634 24.4731 2.2634H34.9413C35.875 2.2634 36.6389 3.0273 36.6389 3.96096V6.0829C36.6389 6.47899 36.9501 6.79021 37.3462 6.79021H38.195C38.5911 6.79021 38.9023 6.47899 38.9023 6.0829V3.96096C38.9023 1.78243 37.1481 0 34.9413 0Z" fill="var(--fill-0, white)"/>
<path id="Vector_8" d="M16.9755 13.2975H3.96096C3.0273 13.2975 2.2634 12.5336 2.2634 11.6V3.96098C2.2634 3.02733 3.0273 2.26343 3.96096 2.26343H10.6097C11.0058 2.26343 11.317 1.95221 11.317 1.55612V0.707341C11.317 0.311245 11.0058 2.67029e-05 10.6097 2.67029e-05H3.96096C1.78243 2.67029e-05 0 1.78246 0 3.96098V11.6C0 13.7785 1.78243 15.5609 3.96096 15.5609H16.9755C17.3716 15.5609 17.6828 15.2497 17.6828 14.8536V14.0048C17.6828 13.6087 17.3716 13.2975 16.9755 13.2975Z" fill="var(--fill-0, white)"/>
<path id="Vector_9" d="M78.1726 0H65.158C64.7619 0 64.4507 0.311218 64.4507 0.707314V1.55609C64.4507 1.95219 64.7619 2.2634 65.158 2.2634H78.1726C79.1063 2.2634 79.8702 3.0273 79.8702 3.96096V5.65851C79.8702 6.59217 79.1063 7.35606 78.1726 7.35606H71.2126C70.6468 7.35606 70.1375 7.78045 70.0809 8.40289C70.0526 8.82728 70.2507 9.22337 70.5902 9.44971L79.757 15.8721C80.0682 16.0985 80.5209 16.0136 80.7472 15.7024L81.2282 14.9951C81.4545 14.6838 81.3697 14.2312 81.0584 14.0048L74.8058 9.61947H78.1726C80.3511 9.61947 82.1336 7.83704 82.1336 5.65851V3.96096C82.1336 1.78243 80.3794 0 78.1726 0Z" fill="var(--fill-0, white)"/>
</g>
</svg>
