<svg preserveAspectRatio="none" width="100%" height="100%" overflow="visible" style="display: block;" viewBox="0 0 137.5 20" fill="none" xmlns="http://www.w3.org/2000/svg">
<g id="Frame">
<path id="Vector" d="M20.3277 14.8V4.6H23.3277V14.8H20.3277ZM20.2277 3.24V0H23.4277V3.24H20.2277ZM24.9183 14.8V4.6H27.8583V7H27.9183V14.8H24.9183ZM32.0183 14.8V8.48C32.0183 7.92 31.8716 7.5 31.5783 7.22C31.2983 6.94 30.885 6.8 30.3383 6.8C29.8716 6.8 29.4516 6.90666 29.0783 7.12C28.7183 7.33334 28.4316 7.62666 28.2183 8C28.0183 8.37334 27.9183 8.81334 27.9183 9.32L27.6583 6.86C27.9916 6.11334 28.4783 5.52 29.1183 5.08C29.7716 4.62666 30.5716 4.4 31.5183 4.4C32.6516 4.4 33.5183 4.72 34.1183 5.36C34.7183 5.98666 35.0183 6.83334 35.0183 7.9V14.8H32.0183ZM41.1211 15C40.0544 15 39.1144 14.7734 38.3011 14.32C37.4878 13.8666 36.8478 13.24 36.3811 12.44C35.9278 11.64 35.7011 10.7267 35.7011 9.7C35.7011 8.67334 35.9278 7.76 36.3811 6.96C36.8478 6.16 37.4878 5.53334 38.3011 5.08C39.1144 4.62666 40.0544 4.4 41.1211 4.4C42.0144 4.4 42.8144 4.56666 43.5211 4.9C44.2411 5.22 44.8278 5.66666 45.2811 6.24C45.7478 6.81334 46.0478 7.48666 46.1811 8.26H43.2811C43.1344 7.76666 42.8678 7.39334 42.4811 7.14C42.1078 6.88666 41.6678 6.76 41.1611 6.76C40.6811 6.76 40.2611 6.88 39.9011 7.12C39.5544 7.36 39.2878 7.7 39.1011 8.14C38.9144 8.58 38.8211 9.1 38.8211 9.7C38.8211 10.3 38.9144 10.82 39.1011 11.26C39.2878 11.7 39.5544 12.04 39.9011 12.28C40.2611 12.52 40.6811 12.64 41.1611 12.64C41.6678 12.64 42.1078 12.5134 42.4811 12.26C42.8678 12.0067 43.1344 11.6333 43.2811 11.14H46.1811C46.0478 11.9133 45.7478 12.5866 45.2811 13.16C44.8278 13.7334 44.2411 14.1866 43.5211 14.52C42.8144 14.84 42.0144 15 41.1211 15ZM51.713 15C50.593 15 49.6063 14.78 48.753 14.34C47.913 13.8866 47.253 13.26 46.773 12.46C46.3063 11.6467 46.073 10.7133 46.073 9.66C46.073 8.60666 46.3063 7.68666 46.773 6.9C47.253 6.11334 47.913 5.5 48.753 5.06C49.6063 4.62 50.593 4.4 51.713 4.4C52.8463 4.4 53.833 4.62 54.673 5.06C55.5263 5.5 56.1863 6.11334 56.653 6.9C57.1196 7.68666 57.353 8.60666 57.353 9.66C57.353 10.7133 57.113 11.6467 56.633 12.46C56.1663 13.26 55.5063 13.8866 54.653 14.34C53.813 14.78 52.833 15 51.713 15ZM51.713 12.64C52.1796 12.64 52.5996 12.52 52.973 12.28C53.3596 12.04 53.6663 11.7 53.893 11.26C54.1196 10.8067 54.233 10.2667 54.233 9.64C54.233 8.72 53.9863 8.01334 53.493 7.52C53.013 7.01334 52.4196 6.76 51.713 6.76C51.0063 6.76 50.4063 7.01334 49.913 7.52C49.433 8.02666 49.193 8.73334 49.193 9.64C49.193 10.2667 49.3063 10.8067 49.533 11.26C49.7596 11.7 50.0596 12.04 50.433 12.28C50.8196 12.52 51.2463 12.64 51.713 12.64ZM58.1433 14.8V4.6H61.0833V7H61.1433V14.8H58.1433ZM61.1433 9.48L60.8833 7.06C61.1233 6.19334 61.5166 5.53334 62.0633 5.08C62.61 4.62666 63.29 4.4 64.1033 4.4C64.3566 4.4 64.5433 4.42666 64.6633 4.48V7.28C64.5966 7.25334 64.5033 7.24 64.3833 7.24C64.2633 7.22666 64.1166 7.22 63.9433 7.22C62.9833 7.22 62.2766 7.39334 61.8233 7.74C61.37 8.07334 61.1433 8.65334 61.1433 9.48ZM71.532 15C70.5586 15 69.7786 14.7734 69.192 14.32C68.6054 13.8666 68.2586 13.2466 68.152 12.46L68.312 12.44V18.9H65.312V4.6H68.252V6.86L68.072 6.82C68.2186 6.07334 68.6186 5.48666 69.272 5.06C69.9254 4.62 70.732 4.4 71.692 4.4C72.612 4.4 73.4054 4.62 74.072 5.06C74.752 5.48666 75.272 6.09334 75.632 6.88C76.0054 7.66666 76.192 8.59334 76.192 9.66C76.192 10.74 75.9988 11.68 75.612 12.48C75.2254 13.28 74.6854 13.9 73.992 14.34C73.2988 14.78 72.4788 15 71.532 15ZM70.692 12.6C71.3988 12.6 71.972 12.3467 72.412 11.84C72.852 11.3333 73.072 10.6133 73.072 9.68C73.072 8.74666 72.8454 8.03334 72.392 7.54C71.952 7.04666 71.372 6.8 70.652 6.8C69.9586 6.8 69.3854 7.05334 68.932 7.56C68.492 8.05334 68.272 8.76666 68.272 9.7C68.272 10.6333 68.492 11.3533 68.932 11.86C69.3854 12.3533 69.972 12.6 70.692 12.6ZM82.1059 15C80.9859 15 79.9993 14.78 79.1459 14.34C78.3059 13.8866 77.6459 13.26 77.1659 12.46C76.6993 11.6467 76.4659 10.7133 76.4659 9.66C76.4659 8.60666 76.6993 7.68666 77.1659 6.9C77.6459 6.11334 78.3059 5.5 79.1459 5.06C79.9993 4.62 80.9859 4.4 82.1059 4.4C83.2393 4.4 84.2259 4.62 85.0659 5.06C85.9193 5.5 86.5793 6.11334 87.0459 6.9C87.5126 7.68666 87.7459 8.60666 87.7459 9.66C87.7459 10.7133 87.5059 11.6467 87.0259 12.46C86.5593 13.26 85.8993 13.8866 85.0459 14.34C84.2059 14.78 83.2259 15 82.1059 15ZM82.1059 12.64C82.5726 12.64 82.9926 12.52 83.3659 12.28C83.7526 12.04 84.0593 11.7 84.2859 11.26C84.5126 10.8067 84.6259 10.2667 84.6259 9.64C84.6259 8.72 84.3793 8.01334 83.8859 7.52C83.4059 7.01334 82.8126 6.76 82.1059 6.76C81.3993 6.76 80.7993 7.01334 80.3059 7.52C79.8259 8.02666 79.5859 8.73334 79.5859 9.64C79.5859 10.2667 79.6993 10.8067 79.9259 11.26C80.1526 11.7 80.4526 12.04 80.8259 12.28C81.2126 12.52 81.6393 12.64 82.1059 12.64ZM88.5363 14.8V4.6H91.4763V7H91.5363V14.8H88.5363ZM91.5363 9.48L91.2763 7.06C91.5163 6.19334 91.9096 5.53334 92.4563 5.08C93.0029 4.62666 93.6829 4.4 94.4963 4.4C94.7496 4.4 94.9363 4.42666 95.0563 4.48V7.28C94.9896 7.25334 94.8963 7.24 94.7763 7.24C94.6563 7.22666 94.5096 7.22 94.3363 7.22C93.3763 7.22 92.6696 7.39334 92.2163 7.74C91.7629 8.07334 91.5363 8.65334 91.5363 9.48ZM95.5488 14.8V4.6H98.5488V14.8H95.5488ZM95.4488 3.24V0H98.6488V3.24H95.4488ZM100.783 14.8V3.92C100.783 2.69334 101.116 1.76666 101.783 1.14C102.449 0.513332 103.436 0.2 104.743 0.2C105.023 0.2 105.263 0.213333 105.463 0.239999C105.676 0.266666 105.883 0.313334 106.083 0.38V2.68C105.989 2.64 105.876 2.61334 105.743 2.6C105.609 2.57334 105.449 2.56 105.263 2.56C104.756 2.56 104.383 2.68 104.143 2.92C103.903 3.16 103.783 3.50666 103.783 3.96V14.8H100.783ZM99.0826 6.88V4.6H105.863V6.88H99.0826ZM107.281 18.9L110.101 12.66L110.621 11.8L113.261 4.6H116.461L110.281 18.9H107.281ZM109.441 14.6L105.521 4.6H108.761L111.981 13.72L109.441 14.6Z" fill="var(--fill-0, white)"/>
</g>
</svg>
