<svg preserveAspectRatio="none" width="100%" height="100%" overflow="visible" style="display: block;" viewBox="0 0 95.3532 16" fill="none" xmlns="http://www.w3.org/2000/svg">
<g id="Group 4">
<path id="Vector" fill-rule="evenodd" clip-rule="evenodd" d="M29.6737 9.13086H35.1886C34.8556 7.36635 33.7828 6.25581 32.4308 6.25581C31.0947 6.25581 30.0547 7.43775 29.6737 9.13086ZM91.3179 9.96251L95.0069 14.8045C95.537 15.5034 95.4878 15.7609 94.6549 15.7609H93.2731C92.9581 15.7609 92.7233 15.5942 92.5343 15.3422L90.0465 11.8387L87.533 15.3359C87.3394 15.6051 87.0815 15.7609 86.7497 15.7609H85.4485C84.797 15.7609 84.5018 15.4791 84.8684 14.9935L88.7175 9.90245L84.9529 5.21499C84.5648 4.73155 84.8458 4.4472 85.4128 4.43292H86.8001C87.1147 4.43292 87.449 4.59967 87.6381 4.85168L90.0897 8.21102L92.5464 4.88024C92.7439 4.61562 93.0374 4.43292 93.3705 4.43292H94.7117C95.2316 4.43292 95.3816 4.77187 95.0111 5.24439L91.3179 9.96251ZM80.6552 14.3425C79.9097 15.2506 78.9323 15.9714 76.9716 15.9714C74.2297 15.9714 72.629 14.1766 72.629 11.3524V5.07639C72.629 4.47617 73.0658 4.41779 73.666 4.41779L74.3108 4.43292C74.9114 4.43292 75.1957 4.49172 75.1957 5.09151V11.1613C75.1957 13.1543 76.3395 13.9498 77.7453 13.9498C78.4471 13.9498 79.4951 13.5919 79.9844 13.0938C80.5132 12.5549 80.6552 11.7069 80.6552 10.9542V5.16123C80.6552 4.56102 81.029 4.43292 81.6292 4.43292H82.1043C82.7045 4.43292 83.1409 4.49172 83.1409 5.09151V15.0822C83.1409 15.5307 83.0909 15.7609 82.4907 15.7609H81.3411C80.9769 15.7609 80.6552 15.5677 80.6552 15.0994V14.3425ZM49.243 4.53246V1.92622C49.243 1.53728 49.6059 1.42093 50.0658 1.42093H50.8614C51.4616 1.42093 51.6796 1.59272 51.6796 2.07238V4.43292H54.4047C54.7445 4.43292 55.0834 4.51146 55.0834 5.11125V5.83285C55.0834 6.43264 54.8856 6.60947 54.2854 6.60947H51.9013C51.8022 6.60947 51.6796 6.70943 51.6796 6.80856V11.9429C51.6796 12.9854 52.0202 13.7687 52.8699 13.7687H53.3399C53.6755 13.7687 53.9208 13.6343 54.1073 13.6285C54.5722 13.6142 54.8381 13.807 54.8381 14.324V14.9688C54.8381 15.6471 54.3295 15.91 53.3441 15.91H52.4814C50.2191 15.91 49.243 14.6609 49.243 12.3508V6.60947H48.0438C47.4436 6.60947 47.1555 6.52085 47.1555 5.92106V5.15997C47.1555 4.70046 47.3315 4.53246 47.765 4.53246H49.243ZM41.6889 6.18189C42.1039 5.44601 43.1321 4.32203 45.2839 4.34177C45.8589 4.34177 46.1861 4.55976 46.1861 5.12217V5.9135C46.1861 6.50447 46.0492 6.63887 45.4674 6.69347H44.7505C42.8528 6.69347 41.6889 7.90566 41.6889 10.0797V15.2418C41.6889 15.6236 41.5138 15.7811 41.0127 15.7609H39.8206C39.4393 15.7609 39.262 15.6139 39.262 15.2418V5.21121C39.262 4.74625 39.4195 4.45308 40.0202 4.45308H40.9509C41.5268 4.45308 41.6889 4.73113 41.6889 5.23012V6.18189ZM29.5792 11.0113C29.9883 12.9837 31.1573 13.988 33.1566 13.9586C34.5238 13.9443 35.6276 13.4378 36.1118 13.2546C36.5949 13.0719 36.9788 13.1727 36.9641 13.5646C36.9641 13.744 36.9897 14.3051 36.9779 14.4786C36.9511 14.8852 36.7192 15.0309 36.4781 15.1716C35.7326 15.6076 34.5494 15.9739 33.0642 15.9991C31.6256 16.0234 29.583 15.5706 28.5523 14.4731C27.4796 13.3307 27.078 11.7917 27.078 10.1763C27.078 6.80394 29.2781 4.40142 32.4064 4.40142C33.6883 4.40142 34.9954 4.68241 35.9846 5.57538C37.1585 6.63677 37.6218 8.16565 37.6218 9.8029C37.6458 10.7891 37.2837 11.0331 36.6398 11.031L29.5792 11.0113ZM15.779 5.21836C15.5068 4.58244 16.2259 4.43459 16.5136 4.43459L17.4982 4.43292C17.9316 4.4325 18.2676 4.72861 18.423 5.13309L21.5812 13.0833L24.4369 5.13141C24.5789 4.73533 24.7629 4.43292 25.2098 4.43292H26.285C27.1893 4.43292 27.0831 5.02683 26.8168 5.6892L22.982 15.2334C22.8249 15.6244 22.5955 15.7609 22.1734 15.7609H20.8793C20.3808 15.7609 20.1775 15.503 20.012 15.1166L15.779 5.21836ZM7.14293 5.9807C8.16988 4.76137 9.09897 4.37327 10.7858 4.37327C13.573 4.37327 15.1389 5.85217 15.1389 8.82298L15.1208 15.1615C15.1196 15.6244 15.002 15.7609 14.4026 15.7609H13.3101C12.7107 15.7609 12.5705 15.6421 12.5717 15.1615L12.5906 8.82845C12.5906 7.42683 11.6779 6.3394 10.1146 6.3436C7.96701 6.34948 7.14293 8.08291 7.14293 9.60507V15.2124C7.14293 15.6244 7.04171 15.7609 6.44191 15.7609H5.4095C4.80971 15.7609 4.70092 15.6068 4.70092 15.1393V5.18644C4.70092 4.70131 4.86179 4.43292 5.3549 4.43292H6.58934C6.94426 4.43292 7.14293 4.63662 7.14293 4.92896V5.9807ZM1.93844 15.7609H0.966927C0.380576 15.7609 3.56038e-05 15.6576 3.56038e-05 15.0221V0.689254C3.56038e-05 0.144065 0.225587 4.9651e-07 0.723733 4.9651e-07H1.88552C2.45843 4.9651e-07 2.62391 0.189843 2.62391 0.622046V15.1414C2.62391 15.6698 2.4307 15.7609 1.93844 15.7609ZM58.0672 10.3695C58.0672 11.291 58.3352 12.2109 58.9728 12.8943C59.5545 13.518 60.3459 13.8334 61.1956 13.8334C62.0423 13.8334 62.8307 13.5138 63.4112 12.8934C64.0509 12.2109 64.3235 11.2927 64.3235 10.3695C64.3235 9.45176 64.0563 8.53443 63.4242 7.85148C63.2024 7.61164 62.95 7.41717 62.6749 7.26848V5.31076C62.6749 5.11335 62.887 5.0306 62.9903 5.06378C65.219 5.78202 66.7281 7.83089 66.7281 10.3695C66.7281 13.5537 64.3793 15.952 61.1956 15.952C58.0194 15.952 55.6626 13.5424 55.6626 10.3695C55.6626 7.85399 57.1596 5.80891 59.3655 5.07723C59.4718 5.04194 59.6894 5.03103 59.6894 5.25952V7.28781C59.4273 7.4344 59.1862 7.62298 58.9732 7.8519C58.339 8.53443 58.0672 9.45008 58.0672 10.3695ZM67.8151 0.505709C67.8151 0.116768 68.178 4.9651e-07 68.6375 4.9651e-07H69.4335C70.0333 4.9651e-07 70.2512 0.171791 70.2512 0.652296C70.2512 5.54178 70.3218 4.33337 70.2512 11.9429C70.2374 13.4437 70.6368 13.6163 71.4143 13.6369C71.6008 13.6419 71.8205 13.8318 71.8205 14.1161V15.2892C71.8205 15.8773 71.2858 15.8298 70.8544 15.8306C68.5938 15.8336 67.8185 14.5706 67.8151 12.3508C67.8046 6.00043 67.8151 4.92308 67.8151 0.505709Z" fill="var(--fill-0, black)"/>
<path id="Vector_2" fill-rule="evenodd" clip-rule="evenodd" d="M61.1777 3.48378C61.6305 3.48378 62.0005 3.85424 62.0005 4.3066V7.54203C62.0005 7.99439 61.6305 8.36401 61.1777 8.36401C60.7254 8.36401 60.3557 7.99439 60.3557 7.54203V4.3066C60.3557 3.85424 60.7254 3.48378 61.1777 3.48378Z" fill="var(--fill-0, black)"/>
</g>
</svg>
