<svg preserveAspectRatio="none" width="100%" height="100%" overflow="visible" style="display: block;" viewBox="0 0 57.4019 26.0001" fill="none" xmlns="http://www.w3.org/2000/svg">
<g id="letiti">
<path id="Vector" d="M53.9753 8.9867C52.2297 8.9867 52.9732 6.33595 54.7511 6.33595C56.5291 6.33595 55.6886 8.9867 53.9753 8.9867ZM56.4968 18.4583L56.9816 17.4238H57.4019L56.9493 18.4583C55.1714 22.4344 53.3934 25.9903 49.1587 25.9903C45.4735 25.9903 46.2817 22.9516 47.8657 19.525L51.6155 11.4435C52.2297 10.0858 53.8783 10.7323 54.8158 9.79486H54.9774L51.4539 17.4885C49.6759 21.4 47.4454 25.3114 49.8376 25.3114C52.5853 25.3114 54.3632 23.0486 56.4968 18.4583Z" fill="var(--fill-0, white)"/>
<path id="Vector_2" d="M39.3235 10.8616L39.2588 10.7323C39.873 10.7323 39.9377 9.79486 41.2307 9.79486H43.2349L44.9805 5.91572C45.5947 4.55801 47.2434 5.20454 48.1808 4.26708H48.3425L45.8534 9.79486H50.9932L51.0579 9.92416C50.4437 9.92416 50.379 10.8616 49.086 10.8616H45.3685L43.0086 16.1308C41.1984 20.1716 38.7739 24.8589 41.1014 25.1821C43.3966 25.4731 45.8857 23.6628 48.3748 18.4583L48.8597 17.4238H49.2799L48.8274 18.4583C46.5322 23.4688 43.9461 26.3135 40.4226 25.861C36.5757 25.3761 37.7718 21.7879 39.4204 18.1673L42.75 10.8616H39.3235Z" fill="var(--fill-0, white)"/>
<path id="Vector_3" d="M36.7705 8.9867C35.0249 8.9867 35.7684 6.33595 37.5464 6.33595C39.3243 6.33595 38.4838 8.9867 36.7705 8.9867ZM39.292 18.4583L39.7769 17.4238H40.1971L39.7445 18.4583C37.9666 22.4344 36.1887 25.9903 31.9539 25.9903C28.2687 25.9903 29.0769 22.9516 30.6609 19.525L34.4107 11.4435C35.0249 10.0858 36.6735 10.7323 37.611 9.79486H37.7726L34.2491 17.4885C32.4711 21.4 30.2406 25.3114 32.6328 25.3114C35.3805 25.3114 37.1584 23.0486 39.292 18.4583Z" fill="var(--fill-0, white)"/>
<path id="Vector_4" d="M22.1187 10.8616L22.054 10.7323C22.6682 10.7323 22.7329 9.79486 24.0259 9.79486H26.0301L27.7758 5.91572C28.39 4.55801 30.0386 5.20454 30.976 4.26708H31.1377L28.6486 9.79486H33.7884L33.8531 9.92416C33.2389 9.92416 33.1742 10.8616 31.8812 10.8616H28.1637L25.8039 16.1308C23.9936 20.1716 21.5691 24.8589 23.8966 25.1821C26.1918 25.4731 28.6809 23.6628 31.17 18.4583L31.6549 17.4238H32.0751L31.6226 18.4583C29.3274 23.4688 26.7413 26.3135 23.2178 25.861C19.3709 25.3761 20.567 21.7879 22.2156 18.1673L25.5452 10.8616H22.1187Z" fill="var(--fill-0, white)"/>
<path id="Vector_5" d="M22.0864 18.4583L22.5713 17.4239H22.9915L22.5389 18.4583C20.761 22.4668 18.0456 26.2166 12.9057 25.9903C5.43838 25.6347 11.5157 9.7949 17.5284 9.7949C22.7329 9.7949 20.7933 17.5855 12.4208 19.7837C11.742 22.693 11.9036 25.1822 13.6169 25.3115C17.2051 25.5377 19.9205 23.0486 22.0864 18.4583ZM12.5501 19.2018C19.6942 17.3915 21.6661 10.4737 18.4982 10.4737C16.3 10.4737 13.6492 15.0964 12.5501 19.2018Z" fill="var(--fill-0, white)"/>
<path id="Vector_6" d="M10.8699 17.4238L10.4173 18.4583C8.63938 22.4344 6.86144 25.9903 2.62671 25.9903C-1.05847 25.9903 -0.250316 22.9516 1.33367 19.525L9.47987 1.64864C10.0941 0.290943 11.7427 0.937466 12.6802 7.62939e-06H12.8418L4.92187 17.4885C3.14393 21.3999 0.913427 25.3114 3.30556 25.3114C6.05329 25.3114 7.83123 23.0486 9.96476 18.4583L10.4497 17.4238H10.8699Z" fill="var(--fill-0, white)"/>
</g>
</svg>
