<svg preserveAspectRatio="none" width="100%" height="100%" overflow="visible" style="display: block;" viewBox="0 0 67.3469 20" fill="none" xmlns="http://www.w3.org/2000/svg">
<g id="6744d304297ed637fa152e9d_Frame 3 1">
<path id="Vector" d="M52.7467 15.0958C52.3083 13.9069 51.4952 13.553 50.2912 13.6835C49.2316 13.7984 48.1499 13.7086 47.0781 13.7103C47.0446 13.7103 47.0116 13.7223 46.9414 13.7358C46.9414 15.7078 46.9414 17.687 46.9414 19.706C44.8263 19.706 42.7471 19.706 40.6489 19.706C40.6489 13.5221 40.6489 7.33154 40.6489 1.11818C40.8095 1.10493 40.9279 1.08663 41.0467 1.08661C45.4046 1.08558 49.7626 1.08222 54.1201 1.0889C55.6083 1.09118 57.063 1.30423 58.4299 1.92568C60.6455 2.93301 61.7863 4.66513 61.8434 7.09754C61.901 9.56999 60.9063 11.4423 58.6634 12.5864C58.4793 12.6804 58.2924 12.7692 58.0626 12.8821C59.5226 15.1557 60.9683 17.4075 62.4471 19.7107C62.3177 19.7254 62.2271 19.7447 62.1365 19.7447C60.1157 19.7464 58.0944 19.7372 56.074 19.7547C55.7422 19.7576 55.5781 19.6283 55.4161 19.365C54.5426 17.947 53.6512 16.5399 52.7467 15.0958ZM52.8761 9.42501C53.1038 9.41325 53.3336 9.4164 53.5589 9.38717C54.7838 9.22836 55.4512 8.46595 55.4336 7.2573C55.4173 6.1537 54.7524 5.52599 53.4826 5.42244C53.2908 5.40676 53.0969 5.40623 52.9038 5.40611C51.043 5.40489 49.1822 5.40456 47.3218 5.40652C47.1895 5.40664 47.0573 5.42689 46.9516 5.43558C46.9516 6.79048 46.9516 8.09877 46.9516 9.42509C48.9148 9.42509 50.8442 9.42509 52.8761 9.42501Z" fill="var(--fill-0, white)"/>
<path id="Vector_2" d="M24.241 6.92029C24.6404 6.92029 24.9881 6.92029 25.4786 6.92029C25.3768 9.30474 25.4439 11.6522 25.1364 13.9495C24.7472 16.8574 22.8433 18.5822 20.025 19.2118C16.9178 19.9058 13.7728 19.9221 10.6651 19.2329C7.22689 18.4704 5.38522 16.1851 5.24493 12.66C5.18975 11.2737 5.1982 9.88453 5.19399 8.49666C5.18664 6.07404 5.19195 3.65138 5.19195 1.18912C7.24636 1.18912 9.27497 1.18912 11.364 1.18912C11.364 1.32286 11.3637 1.47408 11.364 1.6253C11.3717 5.05213 11.3761 8.47898 11.3925 11.9058C11.3942 12.2544 11.4466 12.6069 11.513 12.9504C11.8195 14.5375 12.61 15.3115 14.2515 15.4397C15.1672 15.5112 16.1102 15.4502 17.0204 15.3133C17.96 15.1719 18.5939 14.5309 18.8579 13.6226C19.0371 13.0057 19.1574 12.3538 19.1808 11.7131C19.2321 10.3089 19.205 8.90188 19.2098 7.49604C19.2104 7.32429 19.2099 7.15253 19.2099 6.92029C20.8956 6.92029 22.5424 6.92029 24.241 6.92029Z" fill="var(--fill-0, white)"/>
<path id="Vector_3" d="M37.7494 5.4168C37.1728 5.4168 36.6488 5.4168 36.0795 5.4168C36.0795 10.1381 36.0795 14.8216 36.0795 19.5306C33.9857 19.5306 31.9377 19.5306 29.8398 19.5306C29.8398 14.8299 29.8398 10.1299 29.8398 5.38484C26.2831 5.38484 22.7758 5.38484 19.2382 5.38484C19.2382 3.96213 19.2382 2.58439 19.2382 1.17991C25.9185 1.17991 32.5875 1.17991 39.2761 1.17991C39.2761 2.59159 39.2761 3.97324 39.2761 5.4168C38.7733 5.4168 38.2876 5.4168 37.7494 5.4168Z" fill="var(--fill-0, white)"/>
<path id="Vector_4" d="M64.6218 0.509212H64.0337V2.11126H63.6361V0.509212H63.0561V0.204061H64.6218V0.509212ZM65.3647 0.204061L65.8586 1.58149L66.3504 0.204061H66.8704V2.11126H66.4688V1.58149L66.5133 0.678742L65.9932 2.11126H65.7222L65.2043 0.680861L65.2443 1.58149V2.11126H64.8488V0.204061H65.3647Z" fill="var(--fill-0, white)"/>
</g>
</svg>
